<svg id="web" xmlns="http://www.w3.org/2000/svg" width="32" height="32" viewBox="0 0 32 32">
  <defs>
    <style>
      .cls-1 {
        fill: #a6adb4;
      }
    </style>
  </defs>
  <path id="Path_4" data-name="Path 4" class="cls-1" d="M4.8,4.8A14.525,14.525,0,0,1,16,0,14.525,14.525,0,0,1,27.2,4.8,14.525,14.525,0,0,1,32,16a14.525,14.525,0,0,1-4.8,11.2A14.525,14.525,0,0,1,16,32,14.525,14.525,0,0,1,4.8,27.2C1.867,24,0,20.533,0,16A14.525,14.525,0,0,1,4.8,4.8Zm13.333,24q1.6,0,4-2.4A11.647,11.647,0,0,0,24,20.8a4.416,4.416,0,0,0-1.333-3.2A4.694,4.694,0,0,0,19.2,16H16.533a7.786,7.786,0,0,1-2.4-.533,2.421,2.421,0,0,1-.8-1.867,1.385,1.385,0,0,1,.533-1.067A2.022,2.022,0,0,1,14.933,12a1.82,1.82,0,0,1,1.333.8c.533.267.8.533,1.067.533a1.6,1.6,0,0,0,1.067-.267A1.6,1.6,0,0,0,18.667,12a4.244,4.244,0,0,0-1.333-2.667,11.03,11.03,0,0,0,1.333-5.067.574.574,0,0,0-.533-.533A8.244,8.244,0,0,0,16,3.2c-2.933.267-5.067.8-6.933,2.133a6.714,6.714,0,0,0-2.4,5.333A6.828,6.828,0,0,0,8.8,15.733a7.285,7.285,0,0,0,5.067,2.133h0v1.067A3.424,3.424,0,0,0,14.933,21.6a3.883,3.883,0,0,0,2.4,1.6V28c0,.267,0,.267.267.533S17.867,28.8,18.133,28.8Z"/>
</svg>
